<?xml version="1.0" encoding="UTF-8" standalone="no"?>
<!-- Created with Inkscape (http://www.inkscape.org/) -->

<svg
   width="789.47412"
   height="137.10992"
   viewBox="0 0 789.47412 137.10992"
   version="1.1"
   id="svg1"
   xml:space="preserve"
   inkscape:version="1.4 (e7c3feb1, 2024-10-09)"
   sodipodi:docname="drawing.svg"
   xmlns:inkscape="http://www.inkscape.org/namespaces/inkscape"
   xmlns:sodipodi="http://sodipodi.sourceforge.net/DTD/sodipodi-0.dtd"
   xmlns="http://www.w3.org/2000/svg"
   xmlns:svg="http://www.w3.org/2000/svg"><sodipodi:namedview
     id="namedview1"
     pagecolor="#ffffff"
     bordercolor="#000000"
     borderopacity="0.25"
     inkscape:showpageshadow="2"
     inkscape:pageopacity="0.0"
     inkscape:pagecheckerboard="0"
     inkscape:deskcolor="#d1d1d1"
     inkscape:document-units="px"
     inkscape:zoom="1.2243902"
     inkscape:cx="388.35658"
     inkscape:cy="-348.33665"
     inkscape:window-width="1904"
     inkscape:window-height="928"
     inkscape:window-x="8"
     inkscape:window-y="25"
     inkscape:window-maximized="0"
     inkscape:current-layer="layer1"><inkscape:page
       x="0"
       y="0"
       width="789.47412"
       height="137.10992"
       id="page2"
       margin="0"
       bleed="0" /></sodipodi:namedview><defs
     id="defs1"><inkscape:path-effect
       effect="fillet_chamfer"
       id="path-effect8-2-9-0-5"
       is_visible="true"
       lpeversion="1"
       nodesatellites_param="F,0,0,1,0,0,0,1 @ F,0,0,1,0,0,0,1 @ F,0,0,1,0,0,0,1 @ F,0,1,1,0,1.7381186,0,1 @ F,0,0,1,0,2.2830626,0,1 @ F,0,0,1,0,2.6192261,0,1 @ F,0,0,1,0,1.7381186,0,1 @ F,0,0,1,0,0,0,1 @ F,0,0,1,0,0,0,1 @ F,0,0,1,0,0,0,1 @ F,0,0,1,0,0,0,1 @ F,0,0,1,0,2.0106823,0,1 @ F,0,0,1,0,3.0033079,0,1 @ F,0,0,1,0,2.135125,0,1 @ F,0,0,1,0,1.3653181,0,1 @ F,0,0,1,0,0,0,1 @ F,0,0,1,0,0,0,1 @ F,0,0,1,0,0,0,1"
       radius="0"
       unit="px"
       method="auto"
       mode="F"
       chamfer_steps="1"
       flexible="false"
       use_knot_distance="true"
       apply_no_radius="true"
       apply_with_radius="true"
       only_selected="false"
       hide_knots="false" /></defs><g
     inkscape:label="Layer 1"
     inkscape:groupmode="layer"
     id="layer1"
     transform="translate(-29.916216,788.24825)"><path
       style="font-size:139.957px;font-family:'Changa One';-inkscape-font-specification:'Changa One';fill:#17466b;fill-opacity:1;stroke:none;stroke-width:15;stroke-linecap:round;stroke-linejoin:round;stroke-dasharray:none;stroke-dashoffset:5.6;paint-order:stroke fill markers"
       d="M 109.41795,-652.51027 H 77.325506 l -11.96173,-24.97596 h -6.27261 v 24.97596 h -29.17495 v -83.92458 h 45.95055 q 31.363064,0 31.363064,29.40717 0,20.14189 -13.566344,26.58731 z m -50.326784,-62.43989 v 16.78492 h 6.71024 q 5.25149,0 7.58549,-0.93996 2.47987,-1.07424 2.47987,-4.69978 v -5.50545 q 0,-3.62554 -2.47987,-4.56549 -2.334,-1.07424 -7.58549,-1.07424 z m 82.273334,62.43989 h -30.77958 l 23.63171,-83.92458 h 45.0753 l 23.6317,83.92458 h -30.77957 l -3.35512,-13.29366 h -24.06933 z m 14.58747,-58.14296 -5.98087,23.49889 h 13.42047 l -5.83499,-23.49889 z m 106.05083,58.14296 -22.31884,-29.81002 q -1.16699,-1.47707 -1.45875,-6.4454 h -0.58349 v 36.25542 h -29.17495 v -83.92458 h 27.42445 l 22.31884,29.81 q 1.167,1.47708 1.45874,6.44541 h 0.5835 v -36.25541 h 29.17495 v 83.92458 z m 42.01202,0 v -83.92458 h 40.84493 q 24.65283,0 33.84294,9.66811 9.19011,9.66811 9.19011,32.36131 0,22.55893 -9.19011,32.22704 -9.19011,9.66812 -33.84294,9.66812 z m 41.28255,-62.43989 h -12.1076 v 40.9552 h 12.1076 q 5.98086,0 8.60661,-1.20852 2.77162,-1.3428 2.77162,-5.9083 v -26.72158 q 0,-4.5655 -2.77162,-5.77401 -2.62575,-1.34279 -8.60661,-1.34279 z m 189.05345,62.43989 H 503.863 l 5.54324,-83.92458 h 38.07328 l 11.3783,42.70083 h 1.0211 l 11.3782,-42.70083 h 38.0733 l 5.5433,83.92458 h -30.4879 l -1.7504,-40.68664 h -1.0212 l -11.0865,40.68664 h -22.3188 l -11.23235,-40.68664 h -0.87524 z m 91.7554,-2.28275 q -3.2093,-3.08842 -3.2093,-11.01091 0,-7.92248 3.2093,-11.14518 3.2092,-3.22271 12.5452,-3.22271 9.4819,0 12.6911,3.22271 3.2093,3.2227 3.2093,11.14518 0,7.92249 -3.2093,11.01091 -3.2092,3.08842 -12.6911,3.08842 -9.336,0 -12.5452,-3.08842 z m 97.0067,-29.40718 h -29.175 v 10.20524 h 35.7394 v 21.48469 h -64.9143 v -83.92458 h 64.1849 l -3.6469,21.48469 h -31.3631 v 11.27946 h 29.175 z m 67.1025,11.41375 h -18.9637 v 20.27618 h -29.175 v -83.92458 h 45.9506 q 31.363,0 31.363,31.01852 0,17.05348 -8.1689,25.24451 -3.0634,3.08842 -8.4608,5.2369 -5.3974,2.14847 -12.5452,2.14847 z m -18.9637,-42.16371 v 20.67902 h 6.7102 q 5.2515,0 7.5855,-0.93996 2.4799,-1.07424 2.4799,-4.69978 v -9.39955 q 0,-3.62554 -2.4799,-4.56549 -2.334,-1.07424 -7.5855,-1.07424 z"
       id="text1-7-9-9-8-3"
       aria-label="RAND     M.EP"
       inkscape:export-filename="../Documents/text1-7-9-9-8-3.svg"
       inkscape:export-xdpi="96"
       inkscape:export-ydpi="96" /><path
       style="fill:#17466b;fill-opacity:1;stroke:none;stroke-width:12.4742;stroke-linecap:round;stroke-linejoin:round;stroke-miterlimit:1;stroke-dasharray:none;stroke-dashoffset:5.6;stroke-opacity:1;paint-order:markers stroke fill"
       d="m -502.90339,177.43526 c 0.81674,-2.4502 1.42929,-4.69622 2.04184,-6.94223 0.61255,-2.24602 -18.17232,-25.52291 -18.17232,-25.52291 l -3.9909,2.6261 a 1.8182751,1.8182751 10.363038 0 1 -2.47185,-0.45202 l -7.53719,-10.40147 a 2.2334162,2.2334162 99.70167 0 1 0.53809,-3.14739 l 9.60519,-6.64315 a 2.790041,2.790041 8.5227601 0 1 3.77704,0.56602 l 7.07733,8.96597 a 2.0243386,2.0243386 92.363802 0 1 -0.10878,2.6352 l -2.60108,2.78799 16.94721,24.50199 19.6016,0.40837 24.09362,-41.85757 -2.6408,-4.40135 a 3.1608412,3.1608412 91.497671 0 1 0.0887,-3.39188 l 3.93722,-5.84619 a 3.486782,3.486782 164.69869 0 1 4.38978,-1.20102 l 8.98898,4.27566 a 2.0900186,2.0900186 71.05001 0 1 0.97004,2.82522 l -4.50372,8.96961 a 1.9697914,1.9697914 151.38858 0 1 -1.9702,1.0747 l -4.35958,-0.4671 -24.50199,44.71613 2.90962,5.81923 z"
       id="path7-9-5-4-4"
       sodipodi:nodetypes="csccccccccccccccccc"
       transform="matrix(0.79973053,0,0,0.80357861,836.29062,-876.46645)"
       inkscape:original-d="m -502.90339,177.43526 c 0.81674,-2.4502 1.42929,-4.69622 2.04184,-6.94223 0.61255,-2.24602 -18.17232,-25.52291 -18.17232,-25.52291 l -5.44287,3.58153 -9.8967,-13.65764 13.63711,-9.43171 9.77708,12.38618 -3.78677,4.05889 16.94721,24.50199 19.6016,0.40837 24.09362,-41.85757 -3.67529,-6.1255 6.73804,-10.00498 13.62923,6.48282 -6.07445,12.09786 -5.71713,-0.61255 -24.50199,44.71613 2.90962,5.81923 z"
       inkscape:path-effect="#path-effect8-2-9-0-5" /><path
       id="rect1-0-9-0-3"
       style="fill:#17466b;fill-opacity:1;stroke:none;stroke-width:8;stroke-linecap:round;stroke-linejoin:round;stroke-miterlimit:1;stroke-dasharray:none;stroke-dashoffset:5.6;stroke-opacity:1;paint-order:markers fill stroke"
       d="m 404.32704,-734.18515 a 7.5573025,8.5063577 0 0 0 -7.55665,8.50586 v 66.0332 a 7.5573025,8.5063577 0 0 0 7.55665,8.50781 h 80.24218 a 7.5573025,8.5063577 0 0 0 7.55859,-8.50781 v -66.0332 a 7.5573025,8.5063577 0 0 0 -7.55859,-8.50586 z m 26.9082,22.01953 a 2.3322519,2.2777498 0 0 1 0.92578,0.28906 l 35.86914,20.04688 a 2.331131,2.2766551 0 0 1 0.008,3.94726 l -35.51953,20.02148 a 2.3624768,2.3072685 0 0 1 -3.54493,-1.98046 l -0.30273,-40.04102 a 2.3322519,2.2777498 0 0 1 2.56445,-2.2832 z" /></g></svg>
