<?xml version="1.0" encoding="UTF-8" standalone="no"?>
<!-- Created with Inkscape (http://www.inkscape.org/) -->

<svg
   width="804.47412"
   height="191.54691"
   viewBox="0 0 804.47412 191.54691"
   version="1.1"
   id="svg1"
   xml:space="preserve"
   inkscape:version="1.4 (e7c3feb1, 2024-10-09)"
   sodipodi:docname="drawing.svg"
   xmlns:inkscape="http://www.inkscape.org/namespaces/inkscape"
   xmlns:sodipodi="http://sodipodi.sourceforge.net/DTD/sodipodi-0.dtd"
   xmlns:xlink="http://www.w3.org/1999/xlink"
   xmlns="http://www.w3.org/2000/svg"
   xmlns:svg="http://www.w3.org/2000/svg"><sodipodi:namedview
     id="namedview1"
     pagecolor="#ffffff"
     bordercolor="#000000"
     borderopacity="0.25"
     inkscape:showpageshadow="2"
     inkscape:pageopacity="0.0"
     inkscape:pagecheckerboard="0"
     inkscape:deskcolor="#d1d1d1"
     inkscape:document-units="px"
     inkscape:zoom="1.2243902"
     inkscape:cx="388.35658"
     inkscape:cy="-348.33665"
     inkscape:window-width="1904"
     inkscape:window-height="928"
     inkscape:window-x="8"
     inkscape:window-y="25"
     inkscape:window-maximized="0"
     inkscape:current-layer="layer1"><inkscape:page
       x="0"
       y="0"
       width="804.47412"
       height="191.54691"
       id="page2"
       margin="0"
       bleed="0" /></sodipodi:namedview><defs
     id="defs1"><linearGradient
       id="linearGradient11"
       inkscape:collect="always"><stop
         style="stop-color:#3de6ee;stop-opacity:1;"
         offset="0"
         id="stop12" /><stop
         style="stop-color:#aa3df2;stop-opacity:1;"
         offset="0.66464645"
         id="stop14" /><stop
         style="stop-color:#3de6ee;stop-opacity:1;"
         offset="0.86262625"
         id="stop13" /></linearGradient><inkscape:path-effect
       effect="fillet_chamfer"
       id="path-effect8-2"
       is_visible="true"
       lpeversion="1"
       nodesatellites_param="F,0,0,1,0,0,0,1 @ F,0,0,1,0,0,0,1 @ F,0,0,1,0,0,0,1 @ F,0,1,1,0,1.7381186,0,1 @ F,0,0,1,0,2.2830626,0,1 @ F,0,0,1,0,2.6192261,0,1 @ F,0,0,1,0,1.7381186,0,1 @ F,0,0,1,0,0,0,1 @ F,0,0,1,0,0,0,1 @ F,0,0,1,0,0,0,1 @ F,0,0,1,0,0,0,1 @ F,0,0,1,0,2.0106823,0,1 @ F,0,0,1,0,3.0033079,0,1 @ F,0,0,1,0,2.135125,0,1 @ F,0,0,1,0,1.3653181,0,1 @ F,0,0,1,0,0,0,1 @ F,0,0,1,0,0,0,1 @ F,0,0,1,0,0,0,1"
       radius="0"
       unit="px"
       method="auto"
       mode="F"
       chamfer_steps="1"
       flexible="false"
       use_knot_distance="true"
       apply_no_radius="true"
       apply_with_radius="true"
       only_selected="false"
       hide_knots="false" /><linearGradient
       inkscape:collect="always"
       xlink:href="#linearGradient11"
       id="linearGradient14"
       gradientUnits="userSpaceOnUse"
       gradientTransform="matrix(1.0422826,0,0,0.95943269,11.633879,-868.39133)"
       x1="4.63168"
       y1="437.86642"
       x2="770.04944"
       y2="437.86642" /></defs><g
     inkscape:label="Layer 1"
     inkscape:groupmode="layer"
     id="layer1"
     transform="translate(-13.115125,547.46648)"><path
       style="font-size:139.957px;font-family:'Changa One';-inkscape-font-specification:'Changa One';fill:#18466b;fill-opacity:1;stroke:url(#linearGradient14);stroke-width:15;stroke-linecap:round;stroke-linejoin:round;stroke-dasharray:none;stroke-dashoffset:5.6;paint-order:stroke fill markers"
       d="M 100.11686,-406.72852 H 68.024416 l -11.961729,-24.97596 h -6.272614 v 24.97596 H 20.615125 v -83.92458 h 45.950544 q 31.363069,0 31.363069,29.40717 0,20.14189 -13.56635,26.58731 z m -50.326787,-62.43989 v 16.78492 h 6.710239 q 5.251491,0 7.585487,-0.93996 2.479871,-1.07424 2.479871,-4.69978 v -5.50545 q 0,-3.62554 -2.479871,-4.56549 -2.333996,-1.07424 -7.585487,-1.07424 z m 82.273327,62.43989 h -30.77957 l 23.6317,-83.92458 h 45.0753 l 23.6317,83.92458 h -30.77957 l -3.35512,-13.29366 h -24.06933 z m 14.58747,-58.14296 -5.98087,23.49889 h 13.42047 l -5.83499,-23.49889 z m 106.05083,58.14296 -22.31884,-29.81002 q -1.16699,-1.47707 -1.45875,-6.4454 h -0.58349 v 36.25542 h -29.17495 v -83.92458 h 27.42445 l 22.31884,29.81 q 1.167,1.47708 1.45874,6.44541 h 0.5835 v -36.25541 h 29.17495 v 83.92458 z m 42.01202,0 v -83.92458 h 40.84493 q 24.65283,0 33.84294,9.66811 9.19011,9.66811 9.19011,32.36131 0,22.55893 -9.19011,32.22704 -9.19011,9.66812 -33.84294,9.66812 z m 41.28255,-62.43989 h -12.1076 v 40.9552 h 12.1076 q 5.98086,0 8.60661,-1.20852 2.77162,-1.3428 2.77162,-5.9083 v -26.72158 q 0,-4.5655 -2.77162,-5.77401 -2.62575,-1.34279 -8.60661,-1.34279 z m 189.05345,62.43989 H 494.5619 l 5.54324,-83.92458 h 38.07331 l 11.37823,42.70083 h 1.02113 l 11.37822,-42.70083 h 38.07331 l 5.54325,83.92458 h -30.48783 l -1.75049,-40.68664 h -1.02113 l -11.08648,40.68664 h -22.31883 l -11.23236,-40.68664 h -0.87524 z m 91.75538,-2.28275 q -3.20925,-3.08842 -3.20925,-11.01091 0,-7.92248 3.20925,-11.14518 3.20924,-3.22271 12.54523,-3.22271 9.48185,0 12.6911,3.22271 3.20924,3.2227 3.20924,11.14518 0,7.92249 -3.20924,11.01091 -3.20925,3.08842 -12.6911,3.08842 -9.33599,0 -12.54523,-3.08842 z m 97.00671,-29.40718 h -29.17495 v 10.20524 h 35.73932 v 21.48469 h -64.91427 v -83.92458 h 64.18489 l -3.64686,21.48469 h -31.36308 v 11.27946 h 29.17495 z m 67.10249,11.41375 h -18.96372 v 20.27618 h -29.17495 v -83.92458 h 45.95055 q 31.36307,0 31.36307,31.01852 0,17.05348 -8.16898,25.24451 -3.06338,3.08842 -8.46074,5.2369 -5.39737,2.14847 -12.54523,2.14847 z m -18.96372,-42.16371 v 20.67902 h 6.71024 q 5.25149,0 7.58549,-0.93996 2.47987,-1.07424 2.47987,-4.69978 v -9.39955 q 0,-3.62554 -2.47987,-4.56549 -2.334,-1.07424 -7.58549,-1.07424 z"
       id="text1-7-9"
       aria-label="RAND     M.EP"
       inkscape:export-filename="../Documents/repos/tvr/static/logo.svg"
       inkscape:export-xdpi="96"
       inkscape:export-ydpi="96" /><path
       style="fill:#18466b;fill-opacity:1;stroke:#000000;stroke-width:12.4742;stroke-linecap:round;stroke-linejoin:round;stroke-miterlimit:1;stroke-dasharray:none;stroke-dashoffset:5.6;stroke-opacity:1;paint-order:markers stroke fill"
       d="m -502.90339,177.43526 c 0.81674,-2.4502 1.42929,-4.69622 2.04184,-6.94223 0.61255,-2.24602 -18.17232,-25.52291 -18.17232,-25.52291 l -3.9909,2.6261 a 1.8182751,1.8182751 10.363038 0 1 -2.47185,-0.45202 l -7.53719,-10.40147 a 2.2334162,2.2334162 99.70167 0 1 0.53809,-3.14739 l 9.60519,-6.64315 a 2.790041,2.790041 8.5227601 0 1 3.77704,0.56602 l 7.07733,8.96597 a 2.0243386,2.0243386 92.363802 0 1 -0.10878,2.6352 l -2.60108,2.78799 16.94721,24.50199 19.6016,0.40837 24.09362,-41.85757 -2.6408,-4.40135 a 3.1608412,3.1608412 91.497671 0 1 0.0887,-3.39188 l 3.93722,-5.84619 a 3.486782,3.486782 164.69869 0 1 4.38978,-1.20102 l 8.98898,4.27566 a 2.0900186,2.0900186 71.05001 0 1 0.97004,2.82522 l -4.50372,8.96961 a 1.9697914,1.9697914 151.38858 0 1 -1.9702,1.0747 l -4.35958,-0.4671 -24.50199,44.71613 2.90962,5.81923 z"
       id="path7-9"
       sodipodi:nodetypes="csccccccccccccccccc"
       transform="matrix(0.79973053,0,0,0.80357861,826.98947,-630.68471)"
       inkscape:original-d="m -502.90339,177.43526 c 0.81674,-2.4502 1.42929,-4.69622 2.04184,-6.94223 0.61255,-2.24602 -18.17232,-25.52291 -18.17232,-25.52291 l -5.44287,3.58153 -9.8967,-13.65764 13.63711,-9.43171 9.77708,12.38618 -3.78677,4.05889 16.94721,24.50199 19.6016,0.40837 24.09362,-41.85757 -3.67529,-6.1255 6.73804,-10.00498 13.62923,6.48282 -6.07445,12.09786 -5.71713,-0.61255 -24.50199,44.71613 2.90962,5.81923 z"
       inkscape:path-effect="#path-effect8-2" /><path
       id="rect1-0"
       style="fill:#18466b;fill-opacity:1;stroke:#000000;stroke-width:9.9778;stroke-linecap:round;stroke-linejoin:round;stroke-miterlimit:1;stroke-dasharray:none;stroke-dashoffset:5.6;stroke-opacity:1;paint-order:markers fill stroke"
       d="m -391.34982,50.873246 a 10,10 0 0 0 -9.99913,9.999415 v 77.630349 a 10,10 0 0 0 9.99913,9.99942 h 106.17834 a 10,10 0 0 0 10.00171,-9.99942 V 60.872661 a 10,10 0 0 0 -10.00171,-9.999415 z m 29.69758,22.597988 a 3.0860904,2.6777028 0 0 1 1.22501,0.339819 l 47.46548,23.566932 a 3.0846072,2.6764159 0 0 1 0.008,4.640375 l -47.00028,23.53708 a 3.1260848,2.7124047 0 0 1 -4.68814,-2.32822 l -0.40317,-47.071873 a 3.0860904,2.6777028 0 0 1 3.39335,-2.684113 z"
       transform="matrix(0.75573025,0,0,0.85063577,690.78029,-531.6789)" /></g></svg>
