<?xml version="1.0" encoding="UTF-8" standalone="no"?>
<!-- Created with Inkscape (http://www.inkscape.org/) -->

<svg
   width="880.59216"
   height="155.83191"
   viewBox="0 0 880.59216 155.83191"
   version="1.1"
   id="svg1"
   xml:space="preserve"
   inkscape:version="1.4 (e7c3feb1, 2024-10-09)"
   sodipodi:docname="drawing.svg"
   xmlns:inkscape="http://www.inkscape.org/namespaces/inkscape"
   xmlns:sodipodi="http://sodipodi.sourceforge.net/DTD/sodipodi-0.dtd"
   xmlns:xlink="http://www.w3.org/1999/xlink"
   xmlns="http://www.w3.org/2000/svg"
   xmlns:svg="http://www.w3.org/2000/svg"><sodipodi:namedview
     id="namedview1"
     pagecolor="#ffffff"
     bordercolor="#000000"
     borderopacity="0.25"
     inkscape:showpageshadow="2"
     inkscape:pageopacity="0.0"
     inkscape:pagecheckerboard="0"
     inkscape:deskcolor="#d1d1d1"
     inkscape:document-units="px"
     inkscape:zoom="1.2243902"
     inkscape:cx="388.35658"
     inkscape:cy="-348.33665"
     inkscape:window-width="1904"
     inkscape:window-height="928"
     inkscape:window-x="8"
     inkscape:window-y="25"
     inkscape:window-maximized="0"
     inkscape:current-layer="layer1"><inkscape:page
       x="0"
       y="0"
       width="880.59216"
       height="155.83191"
       id="page2"
       margin="0"
       bleed="0" /></sodipodi:namedview><defs
     id="defs1"><linearGradient
       id="linearGradient11"
       inkscape:collect="always"><stop
         style="stop-color:#3de6ee;stop-opacity:1;"
         offset="0"
         id="stop12" /><stop
         style="stop-color:#aa3df2;stop-opacity:1;"
         offset="0.66464645"
         id="stop14" /><stop
         style="stop-color:#3de6ee;stop-opacity:1;"
         offset="0.86262625"
         id="stop13" /></linearGradient><linearGradient
       inkscape:collect="always"
       xlink:href="#linearGradient11"
       id="linearGradient29"
       gradientUnits="userSpaceOnUse"
       x1="-501.36423"
       y1="-1850.1311"
       x2="367.97214"
       y2="-1850.1311"
       gradientTransform="matrix(0.79471153,0,0,0.79853546,602.52485,-2011.0829)" /><linearGradient
       inkscape:collect="always"
       xlink:href="#linearGradient11"
       id="linearGradient30"
       gradientUnits="userSpaceOnUse"
       x1="-501.36423"
       y1="-1850.1311"
       x2="367.97214"
       y2="-1850.1311"
       gradientTransform="matrix(0.99372414,0,0,0.99372414,300.38046,-148.11066)" /><linearGradient
       inkscape:collect="always"
       xlink:href="#linearGradient11"
       id="linearGradient31"
       gradientUnits="userSpaceOnUse"
       x1="-501.36423"
       y1="-1850.1311"
       x2="367.97214"
       y2="-1850.1311"
       gradientTransform="scale(0.94306366,1.0603738)" /><inkscape:path-effect
       effect="fillet_chamfer"
       id="path-effect10-4-1-4-1-7"
       is_visible="true"
       lpeversion="1"
       nodesatellites_param="F,0,0,1,0,4.8176991,0,1 @ F,0,0,1,0,4.8176991,0,1 @ F,0,0,1,0,4.8176991,0,1"
       radius="5"
       unit="px"
       method="auto"
       mode="F"
       chamfer_steps="1"
       flexible="false"
       use_knot_distance="true"
       apply_no_radius="true"
       apply_with_radius="true"
       only_selected="false"
       hide_knots="false" /></defs><g
     inkscape:label="Layer 1"
     inkscape:groupmode="layer"
     id="layer1"
     transform="translate(501.99213,1928.3729)"><path
       style="fill:#17466b;fill-opacity:1;stroke:url(#linearGradient29);stroke-width:9.93721;stroke-linecap:round;stroke-linejoin:round;stroke-miterlimit:1;stroke-dasharray:none;stroke-dashoffset:5.6;stroke-opacity:1;paint-order:stroke markers fill"
       d="m 202.86173,-1869.3946 c 0.64907,-1.9565 1.13587,-3.7501 1.62267,-5.5436 0.4868,-1.7935 -14.44175,-20.3809 -14.44175,-20.3809 l -3.17162,2.097 a 1.4450042,1.4519571 0 0 1 -1.9644,-0.3609 l -5.98989,-8.306 a 1.7749216,1.783462 0 0 1 0.42762,-2.5133 l 7.63336,-5.3048 a 2.2172778,2.2279467 0 0 1 3.00165,0.452 l 5.62444,7.1597 a 1.6087652,1.6165062 0 0 1 -0.0865,2.1043 l -2.06711,2.2263 13.46815,19.5657 15.57761,0.3261 19.14748,-33.4248 -2.09867,-3.5146 a 2.5119569,2.5240438 0 0 1 0.0705,-2.7086 l 3.12895,-4.6683 a 2.7709859,2.7843191 0 0 1 3.48861,-0.9591 l 7.14365,3.4143 a 1.6609619,1.668954 0 0 1 0.7709,2.256 l -3.57916,7.1626 a 1.5654159,1.5729483 0 0 1 -1.56574,0.8581 l -3.46461,-0.373 -19.47201,35.7075 2.31231,4.6468 z"
       id="path7-9-5-4-4-0-9"
       sodipodi:nodetypes="csccccccccccccccccc" /><path
       id="rect1-0-9-0-3-5-4"
       style="fill:#17466b;fill-opacity:1;stroke:url(#linearGradient30);stroke-width:22;stroke-linecap:square;stroke-linejoin:round;stroke-miterlimit:1;stroke-dasharray:none;stroke-dashoffset:5.6;stroke-opacity:1;paint-order:stroke markers fill"
       d="m 173.27221,-1869.6946 c -4.14717,4e-4 -7.50899,3.7845 -7.50922,8.4525 v 65.6188 c -7e-4,4.6687 3.36139,8.454 7.50922,8.4544 h 79.7386 c 4.14858,8e-4 7.51185,-3.7848 7.51115,-8.4544 v -65.6188 c -2.3e-4,-4.6688 -3.36323,-8.4533 -7.51115,-8.4525 z m 26.73933,21.8814 c -58.39395,4.3253 -2.08263,64.0165 -2.2473,42.0586 l -0.30083,-39.7897 c -0.0102,-1.3458 11.71882,-2.9482 10.34485,-2.8464 z"
       inkscape:export-filename="../Documents/repos/tvr/static/favicon.ico"
       inkscape:export-xdpi="96"
       inkscape:export-ydpi="96"
       sodipodi:nodetypes="cccccccccscsss" /><path
       style="font-weight:bold;font-size:132.338px;font-family:'Changa One';-inkscape-font-specification:'Changa One Bold';fill:#17456a;stroke:url(#linearGradient31);stroke-width:22.0563;stroke-linecap:round;stroke-linejoin:round;stroke-miterlimit:1;stroke-dashoffset:5.6;stroke-opacity:1;paint-order:stroke markers fill"
       d="m -490.96412,-1787.2177 3.49449,-23.1541 c 7.65459,2.1517 14.51877,3.2275 20.59252,3.2275 6.15695,0 11.10748,-0.2806 14.85157,-0.8419 v -7.0164 l -11.23228,-1.1226 c -10.15065,-1.0291 -17.13963,-3.7421 -20.96693,-8.139 -3.74409,-4.4905 -5.61614,-11.086 -5.61614,-19.7863 0,-11.9747 2.28806,-20.2072 6.86417,-24.6977 4.65932,-4.4905 12.52192,-6.7357 23.5878,-6.7357 11.06588,0 21.05013,1.1694 29.95275,3.5082 l -3.12007,22.4524 c -7.73779,-1.4033 -13.93635,-2.1049 -18.59567,-2.1049 -4.65932,0 -8.61142,0.2339 -11.8563,0.7016 v 6.8761 l 8.98583,0.9824 c 10.89947,1.2161 18.42925,4.163 22.58936,8.8406 4.16011,4.584 6.24016,10.9923 6.24016,19.2249 0,5.8938 -0.70722,10.8988 -2.12165,15.015 -1.41444,4.0228 -3.12008,7.11 -5.11693,9.2616 -1.91365,2.0582 -4.65932,3.6486 -8.23701,4.7712 -3.57769,1.1227 -6.73937,1.7775 -9.48504,1.9646 -2.66247,0.2807 -6.24016,0.421 -10.73307,0.421 -10.81627,0 -20.84213,-1.2162 -30.07756,-3.6485 z m 118.81256,1.5436 v -31.0125 h -18.72047 v 31.0125 h -24.96063 v -87.7048 h 24.96063 v 31.0124 h 18.72047 v -31.0124 h 24.96064 v 87.7048 z m 60.52949,-87.7048 v 65.8137 h 8.86103 c 3.16167,0 5.32492,-0.421 6.48975,-1.2631 1.16484,-0.9354 1.74726,-2.9935 1.74726,-6.1743 v -58.3763 h 24.96063 v 49.255 c 0,7.9519 -0.45761,14.3602 -1.37284,19.2249 -0.91523,4.8647 -2.62087,8.9809 -5.11693,12.3488 -2.49606,3.3679 -5.90735,5.7066 -10.23386,7.0163 -4.32651,1.3098 -9.94265,1.9647 -16.84843,1.9647 -6.90577,0 -12.52192,-0.6549 -16.84843,-1.9647 -4.2433,-1.3097 -7.61298,-3.6484 -10.10904,-7.0163 -2.49607,-3.3679 -4.20171,-7.4841 -5.11694,-12.3488 -0.91522,-4.8647 -1.37283,-11.273 -1.37283,-19.2249 v -49.255 z m 98.84412,55.1487 h -21.21653 v 32.5561 h -24.96063 v -87.7048 h 51.16929 l -3.12008,22.4523 h -23.08858 v 11.7876 h 21.21653 z m 58.65742,0 h -21.21653 v 32.5561 h -24.96063 v -87.7048 h 51.16929 l -3.12008,22.4523 h -23.08858 v 11.7876 h 21.21653 z m 62.401493,32.5561 H -141.6403 v -87.7048 h 24.96064 v 65.2523 h 24.960623 z m 56.785423,-33.1174 h -24.960631 v 10.6649 h 30.576773 v 22.4525 h -55.537404 v -87.7048 h 54.913388 l -3.120078,22.4523 h -26.832679 v 11.7876 h 24.960631 z m 16.474094,30.7318 c -1.830445,-2.1517 -2.745668,-5.9873 -2.745668,-11.5069 0,-5.5195 0.915223,-9.4019 2.745668,-11.6472 1.830447,-2.2452 5.408137,-3.3678 10.7330722,-3.3678 5.4081368,0 9.0274284,1.1226 10.8578747,3.3678 1.8304463,2.2453 2.7456694,6.1277 2.7456694,11.6472 0,5.5196 -0.9152231,9.3552 -2.7456694,11.5069 -1.8304463,2.1517 -5.4497379,3.2275 -10.8578747,3.2275 -5.3249352,0 -8.9026252,-1.0758 -10.7330722,-3.2275 z m 29.9528,0.842 3.494488,-23.1541 c 7.654594,2.1517 14.518768,3.2275 20.592522,3.2275 6.156955,0 11.10748,-0.2806 14.851575,-0.8419 v -7.0164 l -11.232284,-1.1226 c -10.150657,-1.0291 -17.139633,-3.7421 -20.96693,-8.139 -3.744095,-4.4905 -5.616143,-11.086 -5.616143,-19.7863 0,-11.9747 2.288058,-20.2072 6.864174,-24.6977 4.659318,-4.4905 12.521917,-6.7357 23.587796,-6.7357 11.06588,0 21.050133,1.1694 29.952758,3.5082 l -3.120079,22.4524 c -7.737795,-1.4033 -13.936352,-2.1049 -18.59567,-2.1049 -4.659318,0 -8.611418,0.2339 -11.856299,0.7016 v 6.8761 l 8.985826,0.9824 c 10.899476,1.2161 18.429267,4.163 22.589372,8.8406 4.160105,4.584 6.240158,10.9923 6.240158,19.2249 0,5.8938 -0.707218,10.8988 -2.121654,15.015 -1.414436,4.0228 -3.120079,7.11 -5.11693,9.2616 -1.913648,2.0582 -4.659317,3.6486 -8.237008,4.7712 -3.577691,1.1227 -6.739371,1.7775 -9.48504,1.9646 -2.662467,0.2807 -6.240158,0.421 -10.733072,0.421 -10.816273,0 -20.842126,-1.2162 -30.07756,-3.6485 z m 118.81253,1.5436 v -31.0125 h -18.72047 v 31.0125 H 86.624708 v -87.7048 h 24.960632 v 31.0124 h 18.72047 v -31.0124 h 24.96063 v 87.7048 z m 211.1824,-87.7048 h 26.08385 l -12.2307,87.7048 h -32.57363 l -5.74094,-32.2754 h -1.49764 l -5.61614,32.2754 h -32.57363 l -12.2307,-87.7048 h 26.08386 l 5.86575,48.9743 h 0.74881 l 8.98583,-48.9743 h 19.09488 l 8.86103,48.9743 h 0.74882 z"
       id="text21-2-5"
       aria-label="SHUFFLE.SH     W"
       sodipodi:nodetypes="ccsccccscsccsccccsccscsccccccccccccccccscsccssssscsssccccccccccccccccccccccccccccccccccccccccccccsssssssssccsccccscsccsccccsccscsccccccccccccccccccccccccccccccc" /><path
       style="fill:#f4f4f4;fill-opacity:1;stroke:none;stroke-width:6.0091;stroke-linecap:round;stroke-linejoin:round;stroke-miterlimit:1;stroke-dasharray:none;stroke-dashoffset:5.6;stroke-opacity:1;paint-order:markers fill stroke"
       d="m -504.137,205.07176 0.3616,48.69413 a 2.8059024,2.8059024 29.791725 0 0 4.20839,2.40937 l 42.18754,-24.34824 a 2.7686731,2.7686731 89.894366 0 0 -0.009,-4.801 l -42.60296,-24.37903 a 2.7700043,2.7700043 149.67718 0 0 -4.14571,2.42477 z"
       id="path9-5-0-0-8-9"
       transform="matrix(0.72200637,0,0,0.69459181,561.76171,-1986.8358)"
       inkscape:original-d="m -504.17277,200.25419 0.43314,58.32927 50.53278,-29.16464 z"
       inkscape:path-effect="#path-effect10-4-1-4-1-7" /></g></svg>
