<?xml version="1.0" encoding="UTF-8" standalone="no"?>
<!-- Created with Inkscape (http://www.inkscape.org/) -->

<svg
   width="304.23737"
   height="52.007812"
   viewBox="0 0 304.23737 52.007812"
   version="1.1"
   id="svg1"
   xml:space="preserve"
   xmlns:inkscape="http://www.inkscape.org/namespaces/inkscape"
   xmlns:sodipodi="http://sodipodi.sourceforge.net/DTD/sodipodi-0.dtd"
   xmlns="http://www.w3.org/2000/svg"
   xmlns:svg="http://www.w3.org/2000/svg"><sodipodi:namedview
     id="namedview1"
     pagecolor="#ffffff"
     bordercolor="#000000"
     borderopacity="0.25"
     inkscape:showpageshadow="2"
     inkscape:pageopacity="0.0"
     inkscape:pagecheckerboard="0"
     inkscape:deskcolor="#d1d1d1"
     inkscape:document-units="px"><inkscape:page
       x="0"
       y="0"
       width="304.23737"
       height="52.007812"
       id="page2"
       margin="0"
       bleed="0" /></sodipodi:namedview><defs
     id="defs1" /><g
     inkscape:label="Layer 1"
     inkscape:groupmode="layer"
     id="layer1"
     transform="translate(-23.945143,-143.23836)"><text
       xml:space="preserve"
       style="font-size:48px;text-align:start;writing-mode:lr-tb;direction:ltr;text-anchor:start;fill:#444444;fill-opacity:1;stroke:#13b5ea;stroke-width:100;stroke-linecap:round;stroke-linejoin:round;stroke-dashoffset:5.6;paint-order:markers fill stroke"
       x="53.518463"
       y="182.8243"
       id="text1-7-1-4-18"><tspan
         sodipodi:role="line"
         id="tspan1-6-7-7-78"
         x="53.518463"
         y="182.8243"
         style="font-style:normal;font-variant:normal;font-weight:500;font-stretch:normal;font-size:48px;font-family:Futura;-inkscape-font-specification:'Futura Medium';fill:#444444;fill-opacity:1;stroke:none">pickmy.show</tspan></text><path
       d="m 41.549899,152.85042 c 0.741355,-1.2806 2.481154,-1.77119 3.887842,-1.0963 1.406672,0.67491 1.945564,2.25879 1.204228,3.5394 l -4.971395,8.58759 c 0.795951,-0.18077 1.66316,-0.10523 2.446087,0.27031 1.311173,0.62909 1.99535,1.91987 1.817647,3.18216 0.872088,-0.27017 1.859285,-0.23336 2.737659,0.18814 1.610358,0.77262 2.273815,2.53471 1.562818,4.02978 0.799337,-0.18666 1.6729,-0.1082 2.455792,0.26758 1.686747,0.80927 2.334027,2.71171 1.445075,4.24727 l -1.610172,2.78141 -0.536713,0.92713 -1.610173,2.78141 c -2.371643,4.09678 -7.941001,5.66721 -12.441073,3.50816 l -1.018429,-0.48865 -4.073643,-1.95446 -0.0066,-9.3e-4 -0.331,-0.15888 c -0.318259,-0.15276 -0.620076,-0.31972 -0.902127,-0.50686 -3.332003,-2.01329 -5.619161,-5.21338 -6.26101,-8.85316 l -1.36252,-7.7616 c -0.252817,-1.43181 0.814944,-2.77053 2.387736,-3.00067 1.572774,-0.23015 3.043263,0.74191 3.296081,2.17374 l 1.05859,6.03874 z m -1.727044,18.7181 c 0.295212,-0.50992 0.07828,-1.14701 -0.481681,-1.41577 -0.560148,-0.26874 -1.259931,-0.0713 -1.55514,0.4385 l -3.220345,5.56283 c -0.295195,0.50994 -0.07828,1.14704 0.481696,1.41576 0.560114,0.26873 1.25993,0.0713 1.555124,-0.43851 z m 3.591963,0.5387 c -0.560115,-0.26873 -1.259948,-0.0713 -1.555142,0.43852 l -3.220346,5.56283 c -0.295194,0.50992 -0.07828,1.14701 0.481681,1.41575 0.560148,0.26872 1.259947,0.0714 1.555141,-0.43853 l 3.220345,-5.5628 c 0.295196,-0.50994 0.07828,-1.14703 -0.481679,-1.41577 z m 4.555338,3.37022 c 0.295211,-0.5099 0.07829,-1.147 -0.481698,-1.41574 -0.56013,-0.26874 -1.259945,-0.0713 -1.555139,0.43854 l -3.220347,5.56279 c -0.295175,0.50993 -0.07828,1.14701 0.481715,1.41578 0.560113,0.26873 1.25993,0.0713 1.555123,-0.43853 z"
       id="path1-0-7-3-2"
       style="fill:#007bff;fill-opacity:1;stroke-width:0.0686494" /></g></svg>
