<?xml version="1.0" encoding="UTF-8" standalone="no"?>
<!-- Created with Inkscape (http://www.inkscape.org/) -->

<svg
   width="848.53613"
   height="139.849"
   viewBox="0 0 848.53613 139.849"
   version="1.1"
   id="svg1"
   xml:space="preserve"
   inkscape:version="1.4 (e7c3feb1, 2024-10-09)"
   sodipodi:docname="drawing.svg"
   xmlns:inkscape="http://www.inkscape.org/namespaces/inkscape"
   xmlns:sodipodi="http://sodipodi.sourceforge.net/DTD/sodipodi-0.dtd"
   xmlns="http://www.w3.org/2000/svg"
   xmlns:svg="http://www.w3.org/2000/svg"><sodipodi:namedview
     id="namedview1"
     pagecolor="#ffffff"
     bordercolor="#000000"
     borderopacity="0.25"
     inkscape:showpageshadow="2"
     inkscape:pageopacity="0.0"
     inkscape:pagecheckerboard="0"
     inkscape:deskcolor="#d1d1d1"
     inkscape:document-units="px"
     inkscape:zoom="1.2243902"
     inkscape:cx="388.35658"
     inkscape:cy="-348.33665"
     inkscape:window-width="1904"
     inkscape:window-height="928"
     inkscape:window-x="8"
     inkscape:window-y="25"
     inkscape:window-maximized="0"
     inkscape:current-layer="layer1"><inkscape:page
       x="0"
       y="0"
       width="848.53613"
       height="139.849"
       id="page2"
       margin="0"
       bleed="0" /></sodipodi:namedview><defs
     id="defs1"><inkscape:path-effect
       effect="fillet_chamfer"
       id="path-effect8-2-9-0-5-5"
       is_visible="true"
       lpeversion="1"
       nodesatellites_param="F,0,0,1,0,0,0,1 @ F,0,0,1,0,0,0,1 @ F,0,0,1,0,0,0,1 @ F,0,1,1,0,1.7381186,0,1 @ F,0,0,1,0,2.2830626,0,1 @ F,0,0,1,0,2.6192261,0,1 @ F,0,0,1,0,1.7381186,0,1 @ F,0,0,1,0,0,0,1 @ F,0,0,1,0,0,0,1 @ F,0,0,1,0,0,0,1 @ F,0,0,1,0,0,0,1 @ F,0,0,1,0,2.0106823,0,1 @ F,0,0,1,0,3.0033079,0,1 @ F,0,0,1,0,2.135125,0,1 @ F,0,0,1,0,1.3653181,0,1 @ F,0,0,1,0,0,0,1 @ F,0,0,1,0,0,0,1 @ F,0,0,1,0,0,0,1"
       radius="0"
       unit="px"
       method="auto"
       mode="F"
       chamfer_steps="1"
       flexible="false"
       use_knot_distance="true"
       apply_no_radius="true"
       apply_with_radius="true"
       only_selected="false"
       hide_knots="false" /></defs><g
     inkscape:label="Layer 1"
     inkscape:groupmode="layer"
     id="layer1"
     transform="translate(487.05969,2136.4927)"><text
       xml:space="preserve"
       style="font-style:normal;font-variant:normal;font-weight:bold;font-stretch:normal;font-size:132.338px;font-family:Roboto;-inkscape-font-specification:'Roboto Bold';text-align:start;writing-mode:lr-tb;direction:ltr;text-anchor:start;fill:#17456a;fill-opacity:1;stroke:none;stroke-width:22.0563;stroke-linecap:round;stroke-linejoin:round;stroke-miterlimit:1;stroke-dasharray:none;stroke-dashoffset:5.6;stroke-opacity:1;paint-order:markers fill stroke"
       x="-519.7738"
       y="-1884.9471"
       id="text21-2"
       transform="scale(0.94306366,1.0603738)"><tspan
         sodipodi:role="line"
         id="tspan21-4"
         x="-519.7738"
         y="-1884.9471"
         style="font-style:normal;font-variant:normal;font-weight:bold;font-stretch:normal;font-family:'Changa One';-inkscape-font-specification:'Changa One Bold';stroke-width:22.0563">SHUFFLE.SH     W</tspan></text><g
       id="g25"
       transform="matrix(0.99372414,0,0,0.99372414,298.28489,-361.18503)"><path
         style="fill:#17466b;fill-opacity:1;stroke:none;stroke-width:12.4742;stroke-linecap:round;stroke-linejoin:round;stroke-miterlimit:1;stroke-dasharray:none;stroke-dashoffset:5.6;stroke-opacity:1;paint-order:markers stroke fill"
         d="m -502.90339,177.43526 c 0.81674,-2.4502 1.42929,-4.69622 2.04184,-6.94223 0.61255,-2.24602 -18.17232,-25.52291 -18.17232,-25.52291 l -3.9909,2.6261 a 1.8182751,1.8182751 10.363038 0 1 -2.47185,-0.45202 l -7.53719,-10.40147 a 2.2334162,2.2334162 99.70167 0 1 0.53809,-3.14739 l 9.60519,-6.64315 a 2.790041,2.790041 8.5227601 0 1 3.77704,0.56602 l 7.07733,8.96597 a 2.0243386,2.0243386 92.363802 0 1 -0.10878,2.6352 l -2.60108,2.78799 16.94721,24.50199 19.6016,0.40837 24.09362,-41.85757 -2.6408,-4.40135 a 3.1608412,3.1608412 91.497671 0 1 0.0887,-3.39188 l 3.93722,-5.84619 a 3.486782,3.486782 164.69869 0 1 4.38978,-1.20102 l 8.98898,4.27566 a 2.0900186,2.0900186 71.05001 0 1 0.97004,2.82522 l -4.50372,8.96961 a 1.9697914,1.9697914 151.38858 0 1 -1.9702,1.0747 l -4.35958,-0.4671 -24.50199,44.71613 2.90962,5.81923 z"
         id="path7-9-5-4-4-0"
         sodipodi:nodetypes="csccccccccccccccccc"
         transform="matrix(0.79973053,0,0,0.80357861,304.05258,-1874.7378)"
         inkscape:original-d="m -502.90339,177.43526 c 0.81674,-2.4502 1.42929,-4.69622 2.04184,-6.94223 0.61255,-2.24602 -18.17232,-25.52291 -18.17232,-25.52291 l -5.44287,3.58153 -9.8967,-13.65764 13.63711,-9.43171 9.77708,12.38618 -3.78677,4.05889 16.94721,24.50199 19.6016,0.40837 24.09362,-41.85757 -3.67529,-6.1255 6.73804,-10.00498 13.62923,6.48282 -6.07445,12.09786 -5.71713,-0.61255 -24.50199,44.71613 2.90962,5.81923 z"
         inkscape:path-effect="#path-effect8-2-9-0-5-5" /><path
         id="rect1-0-9-0-3-5"
         style="fill:#17466b;fill-opacity:1;stroke:none;stroke-width:8;stroke-linecap:round;stroke-linejoin:round;stroke-miterlimit:1;stroke-dasharray:none;stroke-dashoffset:5.6;stroke-opacity:1;paint-order:markers fill stroke"
         d="m -127.911,-1732.4566 a 7.5573025,8.5063577 0 0 0 -7.55665,8.5059 v 66.0332 a 7.5573025,8.5063577 0 0 0 7.55665,8.5078 h 80.242184 a 7.5573025,8.5063577 0 0 0 7.55859,-8.5078 v -66.0332 a 7.5573025,8.5063577 0 0 0 -7.55859,-8.5059 z m 26.9082,22.0196 a 2.3322519,2.2777498 0 0 1 0.92578,0.289 l 35.869145,20.0469 a 2.331131,2.2766551 0 0 1 0.008,3.9473 l -35.51953,20.0215 a 2.3624768,2.3072685 0 0 1 -3.544935,-1.9805 l -0.30273,-40.041 a 2.3322519,2.2777498 0 0 1 2.56445,-2.2832 z"
         inkscape:export-filename="../Documents/repos/tvr/static/favicon.ico"
         inkscape:export-xdpi="96"
         inkscape:export-ydpi="96" /></g></g></svg>
