<?xml version="1.0" encoding="UTF-8" standalone="no"?>
<!-- Created with Inkscape (http://www.inkscape.org/) -->

<svg
   width="848.53613"
   height="139.849"
   viewBox="0 0 848.53613 139.849"
   version="1.1"
   id="svg1"
   xml:space="preserve"
   xmlns="http://www.w3.org/2000/svg"
   xmlns:svg="http://www.w3.org/2000/svg"><defs
     id="defs1" /><g
     id="layer1"
     transform="translate(487.05969,2136.4927)"><path
       style="font-weight:bold;font-size:132.338px;font-family:'Changa One';-inkscape-font-specification:'Changa One Bold';fill:#17456a;stroke-width:22.0563;stroke-linecap:round;stroke-linejoin:round;stroke-miterlimit:1;stroke-dashoffset:5.6;paint-order:markers fill stroke"
       d="m -516.46535,-1886.4029 3.70546,-21.8357 q 12.1751,3.0437 21.83577,3.0437 9.79301,0 15.74822,-0.794 v -6.6169 l -11.91042,-1.0587 q -16.14523,-1.4557 -22.23278,-7.6756 -5.95521,-6.3522 -5.95521,-18.6597 0,-16.9392 7.27859,-23.2914 7.41093,-6.3523 25.01188,-6.3523 17.60095,0 31.76112,3.3085 l -3.30845,21.1741 q -12.30743,-1.9851 -19.71836,-1.9851 -7.41093,0 -12.57211,0.6617 v 6.4845 l 9.52833,0.9264 q 17.33628,1.7204 23.95318,8.3373 6.6169,6.4846 6.6169,18.1303 0,8.3373 -2.24975,14.1602 -2.24974,5.6905 -5.42585,8.7343 -3.04378,2.9114 -8.73431,4.4995 -5.69053,1.588 -10.05769,1.8527 -4.23481,0.397 -11.38107,0.397 -17.20394,0 -31.89345,-3.4408 z m 125.98572,1.4558 v -29.2467 h -19.8507 v 29.2467 h -26.4676 v -82.7113 h 26.4676 v 29.2467 h 19.8507 v -29.2467 h 26.4676 v 82.7113 z m 64.18389,-82.7113 v 62.0665 h 9.396 q 5.02884,0 6.88157,-1.191 1.85273,-1.3234 1.85273,-5.8229 v -55.0526 h 26.4676 v 46.4506 q 0,11.2488 -1.45572,18.1304 -1.45571,6.8815 -5.42585,11.6457 -3.97014,4.7642 -10.85172,6.6169 -6.88158,1.8527 -17.86563,1.8527 -10.98405,0 -17.86563,-1.8527 -6.74924,-1.8527 -10.71938,-6.6169 -3.97014,-4.7642 -5.42585,-11.6457 -1.45572,-6.8816 -1.45572,-18.1304 v -46.4506 z m 104.81172,52.0088 h -22.49746 v 30.7025 h -26.4676 v -82.7113 h 54.25858 l -3.30845,21.1741 h -24.48253 v 11.1164 h 22.49746 z m 62.19879,0 h -22.49746 v 30.7025 h -26.4676 v -82.7113 h 54.25858 l -3.30845,21.1741 h -24.48253 v 11.1164 h 22.49746 z m 66.168902,30.7025 h -52.935202 v -82.7113 h 26.4676 v 61.5372 h 26.467602 z m 60.213776,-31.2318 h -26.4676 v 10.0577 h 32.42281 v 21.1741 h -58.890409 v -82.7113 h 58.228719 l -3.30845,21.1741 h -28.45267 v 11.1164 h 26.4676 z m 17.468698,28.982 q -2.911436,-3.0438 -2.911436,-10.8517 0,-7.8079 2.911436,-10.9841 2.911436,-3.1761 11.381068,-3.1761 8.6019698,0 11.5134057,3.1761 2.9114363,3.1762 2.9114363,10.9841 0,7.8079 -2.9114363,10.8517 -2.9114359,3.0438 -11.5134057,3.0438 -8.469632,0 -11.381068,-3.0438 z m 31.761164,0.794 3.705464,-21.8357 q 12.175095,3.0437 21.835769,3.0437 9.793012,0 15.748222,-0.794 v -6.6169 l -11.91042,-1.0587 q -16.145235,-1.4557 -22.232783,-7.6756 -5.95521,-6.3522 -5.95521,-18.6597 0,-16.9392 7.27859,-23.2914 7.410927,-6.3523 25.011881,-6.3523 17.600954,0 31.76112,3.3085 l -3.30845,21.1741 q -12.307434,-1.9851 -19.718362,-1.9851 -7.410928,0 -12.57211,0.6617 v 6.4845 l 9.528336,0.9264 q 17.336278,1.7204 23.953178,8.3373 6.616899,6.4846 6.616899,18.1303 0,8.3373 -2.249746,14.1602 -2.249745,5.6905 -5.425857,8.7343 -3.043774,2.9114 -8.734308,4.4995 -5.690534,1.588 -10.057688,1.8527 -4.234816,0.397 -11.381068,0.397 -17.203939,0 -31.893457,-3.4408 z m 125.9857,1.4558 v -29.2467 h -19.8507 v 29.2467 H 95.994707 v -82.7113 h 26.467603 v 29.2467 h 19.8507 v -29.2467 h 26.4676 v 82.7113 z m 213.32854,-82.7113 h 27.65864 l -12.96912,82.7113 h -34.54022 l -6.08755,-30.4378 h -1.58805 l -5.95521,30.4378 h -34.54022 l -12.96912,-82.7113 h 27.65864 l 6.21988,46.186 h 0.79403 l 9.52834,-46.186 h 20.24771 l 9.396,46.186 h 0.79403 z"
       id="text21-2"
       transform="scale(0.94306366,1.0603738)"
       aria-label="SHUFFLE.SH     W" /><g
       id="g25"
       transform="matrix(0.99372414,0,0,0.99372414,298.28489,-361.18503)"><path
         style="fill:#17466b;fill-opacity:1;stroke:none;stroke-width:12.4742;stroke-linecap:round;stroke-linejoin:round;stroke-miterlimit:1;stroke-dasharray:none;stroke-dashoffset:5.6;stroke-opacity:1;paint-order:markers stroke fill"
         d="m -502.90339,177.43526 c 0.81674,-2.4502 1.42929,-4.69622 2.04184,-6.94223 0.61255,-2.24602 -18.17232,-25.52291 -18.17232,-25.52291 l -3.9909,2.6261 a 1.8182751,1.8182751 10.363038 0 1 -2.47185,-0.45202 l -7.53719,-10.40147 a 2.2334162,2.2334162 99.70167 0 1 0.53809,-3.14739 l 9.60519,-6.64315 a 2.790041,2.790041 8.5227601 0 1 3.77704,0.56602 l 7.07733,8.96597 a 2.0243386,2.0243386 92.363802 0 1 -0.10878,2.6352 l -2.60108,2.78799 16.94721,24.50199 19.6016,0.40837 24.09362,-41.85757 -2.6408,-4.40135 a 3.1608412,3.1608412 91.497671 0 1 0.0887,-3.39188 l 3.93722,-5.84619 a 3.486782,3.486782 164.69869 0 1 4.38978,-1.20102 l 8.98898,4.27566 a 2.0900186,2.0900186 71.05001 0 1 0.97004,2.82522 l -4.50372,8.96961 a 1.9697914,1.9697914 151.38858 0 1 -1.9702,1.0747 l -4.35958,-0.4671 -24.50199,44.71613 2.90962,5.81923 z"
         id="path7-9-5-4-4-0"
         transform="matrix(0.79973053,0,0,0.80357861,304.05258,-1874.7378)" /><path
         id="rect1-0-9-0-3-5"
         style="fill:#17466b;fill-opacity:1;stroke:none;stroke-width:8;stroke-linecap:round;stroke-linejoin:round;stroke-miterlimit:1;stroke-dasharray:none;stroke-dashoffset:5.6;stroke-opacity:1;paint-order:markers fill stroke"
         d="m -127.911,-1732.4566 a 7.5573025,8.5063577 0 0 0 -7.55665,8.5059 v 66.0332 a 7.5573025,8.5063577 0 0 0 7.55665,8.5078 h 80.242184 a 7.5573025,8.5063577 0 0 0 7.55859,-8.5078 v -66.0332 a 7.5573025,8.5063577 0 0 0 -7.55859,-8.5059 z m 26.9082,22.0196 a 2.3322519,2.2777498 0 0 1 0.92578,0.289 l 35.869145,20.0469 a 2.331131,2.2766551 0 0 1 0.008,3.9473 l -35.51953,20.0215 a 2.3624768,2.3072685 0 0 1 -3.544935,-1.9805 l -0.30273,-40.041 a 2.3322519,2.2777498 0 0 1 2.56445,-2.2832 z" /></g></g></svg>
